<?xml version="1.0" standalone="no"?>
<!DOCTYPE svg PUBLIC "-//W3C//DTD SVG 1.1//EN" "http://www.w3.org/Graphics/SVG/1.1/DTD/svg11.dtd">
<svg width="11mm" height="55mm" viewBox="0 -55 11 55" xmlns="http://www.w3.org/2000/svg" version="1.1">
<title>OpenSCAD Model</title>
<path d="
M 10,-54.5162 L 8.97601,-54.5162 L 8.97601,-49.5322 L 8.86552,-49.5814 L 8.75633,-49.6358 L 8.64845,-49.6954
 L 8.54189,-49.7603 L 8.43661,-49.8304 L 8.33266,-49.9057 L 8.23001,-49.9862 L 8.12794,-50.0712 L 8.02634,-50.1593
 L 7.92517,-50.2506 L 7.82446,-50.3451 L 7.7242,-50.4426 L 7.62437,-50.5434 L 7.52501,-50.6472 L 7.42566,-50.7539
 L 7.32648,-50.8627 L 7.22746,-50.9735 L 7.1286,-51.0864 L 7.02991,-51.2013 L 6.93138,-51.3182 L 6.83301,-51.4372
 L 6.73431,-51.5573 L 6.63538,-51.6771 L 6.53619,-51.7966 L 6.43677,-51.9157 L 6.33708,-52.0345 L 6.23717,-52.153
 L 6.13701,-52.2712 L 6.03638,-52.3888 L 5.93504,-52.505 L 5.83302,-52.6198 L 5.73032,-52.7332 L 5.62691,-52.8453
 L 5.5228,-52.9559 L 5.41801,-53.0652 L 5.31232,-53.1719 L 5.20552,-53.2748 L 5.09763,-53.374 L 4.98862,-53.4695
 L 4.87852,-53.5611 L 4.76732,-53.649 L 4.65501,-53.7332 L 4.54105,-53.8131 L 4.42546,-53.8884 L 4.30823,-53.9589
 L 4.18938,-54.0248 L 4.06888,-54.086 L 3.94676,-54.1424 L 3.82301,-54.1942 L 3.69746,-54.2401 L 3.56995,-54.2789
 L 3.44048,-54.3107 L 3.30905,-54.3354 L 3.17566,-54.3531 L 3.04031,-54.3637 L 2.90302,-54.3672 L 2.72295,-54.363
 L 2.54904,-54.3506 L 2.38132,-54.3297 L 2.21974,-54.3006 L 2.06433,-54.2631 L 1.91508,-54.2173 L 1.772,-54.1632
 L 1.63493,-54.1015 L 1.50426,-54.0325 L 1.37999,-53.9561 L 1.26213,-53.8724 L 1.15068,-53.7814 L 1.04564,-53.683
 L 0.947006,-53.5772 L 0.854919,-53.4642 L 0.769531,-53.3442 L 0.690842,-53.2171 L 0.618851,-53.083 L 0.553543,-52.9418
 L 0.494919,-52.7935 L 0.443008,-52.6382 L 0.397644,-52.4762 L 0.359253,-52.3078 L 0.32785,-52.133 L 0.303421,-51.9518
 L 0.285965,-51.7643 L 0.275497,-51.5704 L 0.272003,-51.3702 L 0.276031,-51.1663 L 0.288086,-50.9695 L 0.308197,-50.7797
 L 0.336334,-50.597 L 0.372513,-50.4213 L 0.416748,-50.2527 L 0.469009,-50.0912 L 0.528015,-49.9367 L 0.593002,-49.7888
 L 0.664001,-49.6473 L 0.741013,-49.5123 L 0.824005,-49.3838 L 0.91301,-49.2617 L 1.00801,-49.1462 L 1.108,-49.0374
 L 1.21259,-48.9354 L 1.32172,-48.8404 L 1.43544,-48.7522 L 1.55373,-48.671 L 1.67657,-48.5966 L 1.804,-48.5292
 L 1.93498,-48.4685 L 2.0685,-48.4145 L 2.20454,-48.3671 L 2.34311,-48.3264 L 2.48421,-48.2924 L 2.62784,-48.265
 L 2.774,-48.2442 L 2.88901,-49.4912 L 2.77814,-49.5069 L 2.67122,-49.5272 L 2.56825,-49.5521 L 2.46925,-49.5815
 L 2.37421,-49.6155 L 2.28313,-49.6541 L 2.19601,-49.6972 L 2.11287,-49.7448 L 2.03372,-49.7961 L 1.95857,-49.8511
 L 1.88744,-49.9098 L 1.8203,-49.9722 L 1.75716,-50.0383 L 1.69801,-50.1082 L 1.64264,-50.1814 L 1.5914,-50.2574
 L 1.54427,-50.3364 L 1.50127,-50.4182 L 1.4624,-50.503 L 1.42764,-50.5907 L 1.397,-50.6812 L 1.37021,-50.7744
 L 1.34753,-50.8693 L 1.32899,-50.966 L 1.31456,-51.0644 L 1.30424,-51.1646 L 1.29807,-51.2665 L 1.29601,-51.3702
 L 1.29816,-51.481 L 1.30458,-51.589 L 1.31529,-51.694 L 1.33029,-51.7962 L 1.34958,-51.8954 L 1.37315,-51.9918
 L 1.401,-52.0852 L 1.43289,-52.1756 L 1.46909,-52.2622 L 1.50961,-52.345 L 1.55447,-52.424 L 1.60367,-52.4992
 L 1.65717,-52.5706 L 1.71501,-52.6382 L 1.77675,-52.702 L 1.84251,-52.7613 L 1.91234,-52.8162 L 1.98619,-52.8666
 L 2.06409,-52.9126 L 2.14603,-52.9541 L 2.23201,-52.9912 L 2.32172,-53.0236 L 2.41544,-53.051 L 2.51315,-53.0734
 L 2.61487,-53.0908 L 2.72058,-53.1032 L 2.83029,-53.1107 L 2.944,-53.1132 L 3.10893,-53.1077 L 3.26883,-53.0913
 L 3.42371,-53.064 L 3.57356,-53.0257 L 3.7184,-52.9765 L 3.85822,-52.9163 L 3.99301,-52.8452 L 4.12448,-52.7652
 L 4.25432,-52.6785 L 4.38252,-52.585 L 4.50909,-52.4847 L 4.63403,-52.3777 L 4.75734,-52.2638 L 4.87901,-52.1432
 L 4.9996,-52.0171 L 5.12024,-51.8866 L 5.24091,-51.7519 L 5.36162,-51.6129 L 5.48238,-51.4696 L 5.60316,-51.3221
 L 5.72401,-51.1702 L 5.84605,-51.016 L 5.97102,-50.8613 L 6.09895,-50.7062 L 6.2298,-50.5506 L 6.3636,-50.3946
 L 6.50034,-50.2381 L 6.64001,-50.0812 L 6.78352,-49.9254 L 6.93176,-49.7716 L 7.08475,-49.6198 L 7.24246,-49.4701
 L 7.40491,-49.3224 L 7.57208,-49.1768 L 7.744,-49.0332 L 7.92184,-48.894 L 8.10736,-48.761 L 8.30054,-48.6343
 L 8.50139,-48.5137 L 8.70993,-48.3993 L 8.92613,-48.2912 L 9.15001,-48.1892 L 10,-48.1892 z
M 10,-46.9942 L 8.97601,-46.9942 L 8.97601,-44.6682 L 0.464005,-44.6682 L 0.464005,-43.5422 L 1.99901,-41.2842
 L 3.15201,-41.2842 L 1.63101,-43.4402 L 8.97601,-43.4402 L 8.97601,-41.0062 L 10,-41.0062 z
M 10,-39.4303 L 8.97601,-39.4303 L 8.97601,-34.4463 L 8.86552,-34.4955 L 8.75633,-34.5499 L 8.64845,-34.6095
 L 8.54189,-34.6743 L 8.43661,-34.7444 L 8.33266,-34.8197 L 8.23001,-34.9003 L 8.12794,-34.9853 L 8.02634,-35.0734
 L 7.92517,-35.1647 L 7.82446,-35.2591 L 7.7242,-35.3567 L 7.62437,-35.4574 L 7.52501,-35.5613 L 7.42566,-35.668
 L 7.32648,-35.7768 L 7.22746,-35.8876 L 7.1286,-36.0004 L 7.02991,-36.1153 L 6.93138,-36.2323 L 6.83301,-36.3513
 L 6.73431,-36.4714 L 6.63538,-36.5912 L 6.53619,-36.7106 L 6.43677,-36.8298 L 6.33708,-36.9486 L 6.23717,-37.0671
 L 6.13701,-37.1853 L 6.03638,-37.3029 L 5.93504,-37.4191 L 5.83302,-37.5339 L 5.73032,-37.6473 L 5.62691,-37.7594
 L 5.5228,-37.87 L 5.41801,-37.9793 L 5.31232,-38.086 L 5.20552,-38.1889 L 5.09763,-38.2881 L 4.98862,-38.3835
 L 4.87852,-38.4752 L 4.76732,-38.5631 L 4.65501,-38.6473 L 4.54105,-38.7272 L 4.42546,-38.8024 L 4.30823,-38.873
 L 4.18938,-38.9389 L 4.06888,-39 L 3.94676,-39.0565 L 3.82301,-39.1083 L 3.69746,-39.1542 L 3.56995,-39.193
 L 3.44048,-39.2248 L 3.30905,-39.2495 L 3.17566,-39.2672 L 3.04031,-39.2777 L 2.90302,-39.2813 L 2.72295,-39.2771
 L 2.54904,-39.2646 L 2.38132,-39.2438 L 2.21974,-39.2147 L 2.06433,-39.1772 L 1.91508,-39.1314 L 1.772,-39.0773
 L 1.63493,-39.0156 L 1.50426,-38.9466 L 1.37999,-38.8702 L 1.26213,-38.7865 L 1.15068,-38.6954 L 1.04564,-38.597
 L 0.947006,-38.4913 L 0.854919,-38.3783 L 0.769531,-38.2583 L 0.690842,-38.1312 L 0.618851,-37.9971 L 0.553543,-37.8559
 L 0.494919,-37.7076 L 0.443008,-37.5523 L 0.397644,-37.3902 L 0.359253,-37.2218 L 0.32785,-37.047 L 0.303421,-36.8659
 L 0.285965,-36.6784 L 0.275497,-36.4845 L 0.272003,-36.2843 L 0.276031,-36.0804 L 0.288086,-35.8835 L 0.308197,-35.6938
 L 0.336334,-35.511 L 0.372513,-35.3354 L 0.416748,-35.1668 L 0.469009,-35.0053 L 0.528015,-34.8508 L 0.593002,-34.7028
 L 0.664001,-34.5613 L 0.741013,-34.4263 L 0.824005,-34.2978 L 0.91301,-34.1758 L 1.00801,-34.0603 L 1.108,-33.9514
 L 1.21259,-33.8495 L 1.32172,-33.7545 L 1.43544,-33.6663 L 1.55373,-33.5851 L 1.67657,-33.5107 L 1.804,-33.4433
 L 1.93498,-33.3826 L 2.0685,-33.3286 L 2.20454,-33.2812 L 2.34311,-33.2405 L 2.48421,-33.2064 L 2.62784,-33.179
 L 2.774,-33.1583 L 2.88901,-34.4053 L 2.77814,-34.421 L 2.67122,-34.4413 L 2.56825,-34.4661 L 2.46925,-34.4955
 L 2.37421,-34.5296 L 2.28313,-34.5681 L 2.19601,-34.6113 L 2.11287,-34.6588 L 2.03372,-34.7101 L 1.95857,-34.7651
 L 1.88744,-34.8238 L 1.8203,-34.8863 L 1.75716,-34.9524 L 1.69801,-35.0223 L 1.64264,-35.0954 L 1.5914,-35.1715
 L 1.54427,-35.2504 L 1.50127,-35.3323 L 1.4624,-35.4171 L 1.42764,-35.5047 L 1.397,-35.5953 L 1.37021,-35.6884
 L 1.34753,-35.7833 L 1.32899,-35.88 L 1.31456,-35.9785 L 1.30424,-36.0786 L 1.29807,-36.1806 L 1.29601,-36.2843
 L 1.29816,-36.3951 L 1.30458,-36.503 L 1.31529,-36.6081 L 1.33029,-36.7102 L 1.34958,-36.8095 L 1.37315,-36.9058
 L 1.401,-36.9993 L 1.43289,-37.0897 L 1.46909,-37.1762 L 1.50961,-37.259 L 1.55447,-37.338 L 1.60367,-37.4132
 L 1.65717,-37.4846 L 1.71501,-37.5523 L 1.77675,-37.616 L 1.84251,-37.6754 L 1.91234,-37.7302 L 1.98619,-37.7807
 L 2.06409,-37.8267 L 2.14603,-37.8682 L 2.23201,-37.9053 L 2.32172,-37.9376 L 2.41544,-37.965 L 2.51315,-37.9874
 L 2.61487,-38.0049 L 2.72058,-38.0173 L 2.83029,-38.0248 L 2.944,-38.0273 L 3.10893,-38.0218 L 3.26883,-38.0054
 L 3.42371,-37.978 L 3.57356,-37.9398 L 3.7184,-37.8905 L 3.85822,-37.8304 L 3.99301,-37.7593 L 4.12448,-37.6793
 L 4.25432,-37.5926 L 4.38252,-37.4991 L 4.50909,-37.3988 L 4.63403,-37.2917 L 4.75734,-37.1779 L 4.87901,-37.0573
 L 4.9996,-36.9311 L 5.12024,-36.8007 L 5.24091,-36.666 L 5.36162,-36.527 L 5.48238,-36.3837 L 5.60316,-36.2361
 L 5.72401,-36.0843 L 5.84605,-35.93 L 5.97102,-35.7754 L 6.09895,-35.6202 L 6.2298,-35.4647 L 6.3636,-35.3087
 L 6.50034,-35.1522 L 6.64001,-34.9953 L 6.78352,-34.8394 L 6.93176,-34.6856 L 7.08475,-34.5339 L 7.24246,-34.3842
 L 7.40491,-34.2365 L 7.57208,-34.0909 L 7.744,-33.9473 L 7.92184,-33.8081 L 8.10736,-33.6751 L 8.30054,-33.5483
 L 8.50139,-33.4277 L 8.70993,-33.3134 L 8.92613,-33.2052 L 9.15001,-33.1033 L 10,-33.1033 z
M 10,-31.2267 L 8.52802,-31.2267 L 8.52802,-29.9047 L 10,-29.9047 z
M 5.4644,-19.5527 L 5.76285,-19.5705 L 6.05435,-19.6002 L 6.33893,-19.6418 L 6.61656,-19.6953 L 6.88725,-19.7606
 L 7.151,-19.8378 L 7.40623,-19.9272 L 7.65134,-20.0286 L 7.88631,-20.1421 L 8.11118,-20.2675 L 8.32591,-20.4049
 L 8.53052,-20.5544 L 8.72501,-20.7158 L 8.90822,-20.8893 L 9.07954,-21.0744 L 9.23898,-21.2711 L 9.38657,-21.4794
 L 9.52225,-21.6993 L 9.64607,-21.9307 L 9.75801,-22.1738 L 9.85617,-22.4288 L 9.93924,-22.6956 L 10.0072,-22.9741
 L 10.06,-23.2644 L 10.0978,-23.5664 L 10.1204,-23.8802 L 10.128,-24.2058 L 10.124,-24.4313 L 10.1122,-24.6505
 L 10.0924,-24.8636 L 10.0647,-25.0704 L 10.029,-25.2711 L 9.98547,-25.4655 L 9.93401,-25.6538 L 9.87532,-25.8362
 L 9.81065,-26.013 L 9.74005,-26.1842 L 9.66348,-26.3499 L 9.58095,-26.5101 L 9.49246,-26.6647 L 9.39801,-26.8138
 L 9.29781,-26.9574 L 9.19263,-27.0955 L 9.08246,-27.2282 L 8.96732,-27.3555 L 8.8472,-27.4774 L 8.72209,-27.5938
 L 8.59201,-27.7048 L 8.45789,-27.8109 L 8.32066,-27.912 L 8.18033,-28.0081 L 8.03691,-28.0992 L 7.89038,-28.1854
 L 7.74074,-28.2666 L 7.58801,-28.3428 L 7.05602,-27.2848 L 7.18408,-27.2194 L 7.3089,-27.1512 L 7.43045,-27.0803
 L 7.54874,-27.0066 L 7.66376,-26.9301 L 7.77551,-26.8508 L 7.884,-26.7688 L 7.9888,-26.684 L 8.08948,-26.5961
 L 8.18604,-26.5049 L 8.27846,-26.4104 L 8.36676,-26.3128 L 8.45094,-26.2119 L 8.53101,-26.1078 L 8.60625,-26.0005
 L 8.67656,-25.8897 L 8.74193,-25.7752 L 8.80235,-25.657 L 8.85785,-25.5352 L 8.9084,-25.4098 L 8.95401,-25.2808
 L 8.9938,-25.1479 L 9.02748,-25.0111 L 9.05502,-24.8702 L 9.07646,-24.7254 L 9.09177,-24.5765 L 9.10095,-24.4236
 L 9.104,-24.2668 L 9.09813,-24.0435 L 9.08049,-23.8266 L 9.05112,-23.6163 L 9.00996,-23.4124 L 8.95706,-23.2151
 L 8.89241,-23.0242 L 8.81601,-22.8398 L 8.72868,-22.6626 L 8.63185,-22.4935 L 8.5255,-22.3324 L 8.40964,-22.1792
 L 8.28427,-22.0341 L 8.1494,-21.8969 L 8.005,-21.7678 L 7.85175,-21.6471 L 7.69023,-21.5347 L 7.52048,-21.4305
 L 7.34248,-21.3346 L 7.15623,-21.2471 L 6.96175,-21.1678 L 6.759,-21.0968 L 6.54886,-21.0347 L 6.33272,-20.9822
 L 6.11058,-20.9392 L 5.88243,-20.9058 L 5.6483,-20.8819 L 5.40816,-20.8676 L 5.162,-20.8628 L 4.91609,-20.8672
 L 4.67662,-20.8805 L 4.4436,-20.9026 L 4.21703,-20.9336 L 3.9969,-20.9735 L 3.78323,-21.0222 L 3.576,-21.0798
 L 3.37621,-21.146 L 3.18483,-21.2207 L 3.00185,-21.3038 L 2.82727,-21.3954 L 2.6611,-21.4954 L 2.50336,-21.6039
 L 2.354,-21.7208 L 2.21338,-21.8461 L 2.08234,-21.9796 L 1.96089,-22.1215 L 1.84903,-22.2717 L 1.74677,-22.4301
 L 1.65408,-22.5968 L 1.57101,-22.7718 L 1.49805,-22.9547 L 1.43631,-23.1453 L 1.3858,-23.3436 L 1.34651,-23.5494
 L 1.31845,-23.7629 L 1.30162,-23.984 L 1.29601,-24.2128 L 1.29895,-24.3804 L 1.30777,-24.5426 L 1.32246,-24.6994
 L 1.34303,-24.8508 L 1.36948,-24.9969 L 1.40181,-25.1375 L 1.44,-25.2728 L 1.48282,-25.4032 L 1.52956,-25.5288
 L 1.58022,-25.6495 L 1.63478,-25.7654 L 1.69327,-25.8764 L 1.75568,-25.9825 L 1.82201,-26.0838 L 1.89177,-26.1803
 L 1.96446,-26.272 L 2.04008,-26.3591 L 2.11867,-26.4413 L 2.20016,-26.5189 L 2.28462,-26.5917 L 2.37201,-26.6598
 L 2.46123,-26.7238 L 2.55176,-26.784 L 2.6436,-26.8403 L 2.73674,-26.8928 L 2.83119,-26.9413 L 2.92694,-26.986
 L 3.024,-27.0268 L 2.62001,-28.2538 L 2.2991,-28.1053 L 2.00156,-27.9346 L 1.72736,-27.7418 L 1.4765,-27.5268
 L 1.24899,-27.2896 L 1.04483,-27.0303 L 0.864014,-26.7488 L 0.70694,-26.446 L 0.574051,-26.1227 L 0.465317,-25.7789
 L 0.380737,-25.4146 L 0.320328,-25.0298 L 0.284088,-24.6245 L 0.272003,-24.1988 L 0.279022,-23.886 L 0.300095,-23.5833
 L 0.33519,-23.2905 L 0.384338,-23.0076 L 0.447525,-22.7347 L 0.52475,-22.4718 L 0.616013,-22.2188 L 0.719986,-21.9764
 L 0.835922,-21.7452 L 0.963821,-21.5251 L 1.10368,-21.3163 L 1.25549,-21.1186 L 1.41927,-20.9321 L 1.595,-20.7568
 L 1.78192,-20.5932 L 1.97983,-20.4411 L 2.18871,-20.3007 L 2.40855,-20.1718 L 2.63939,-20.0546 L 2.88121,-19.9489
 L 3.134,-19.8548 L 3.39673,-19.7731 L 3.66829,-19.7039 L 3.94872,-19.6474 L 4.23801,-19.6034 L 4.53615,-19.5719
 L 4.84315,-19.5531 L 5.15901,-19.5468 z
M 5.4644,-9.75781 L 5.76285,-9.77562 L 6.05435,-9.80531 L 6.33893,-9.84689 L 6.61656,-9.90033 L 6.88725,-9.96567
 L 7.151,-10.0429 L 7.40623,-10.1323 L 7.65134,-10.2337 L 7.88631,-10.3472 L 8.11118,-10.4726 L 8.32591,-10.61
 L 8.53052,-10.7594 L 8.72501,-10.9209 L 8.90822,-11.0944 L 9.07954,-11.2795 L 9.23898,-11.4762 L 9.38657,-11.6845
 L 9.52225,-11.9043 L 9.64607,-12.1358 L 9.75801,-12.3789 L 9.85617,-12.6339 L 9.93924,-12.9007 L 10.0072,-13.1792
 L 10.06,-13.4695 L 10.0978,-13.7715 L 10.1204,-14.0853 L 10.128,-14.4109 L 10.124,-14.6363 L 10.1122,-14.8556
 L 10.0924,-15.0687 L 10.0647,-15.2755 L 10.029,-15.4762 L 9.98547,-15.6706 L 9.93401,-15.8589 L 9.87532,-16.0412
 L 9.81065,-16.218 L 9.74005,-16.3893 L 9.66348,-16.555 L 9.58095,-16.7152 L 9.49246,-16.8698 L 9.39801,-17.0189
 L 9.29781,-17.1624 L 9.19263,-17.3006 L 9.08246,-17.4333 L 8.96732,-17.5606 L 8.8472,-17.6824 L 8.72209,-17.7989
 L 8.59201,-17.9099 L 8.45789,-18.0159 L 8.32066,-18.1171 L 8.18033,-18.2132 L 8.03691,-18.3043 L 7.89038,-18.3905
 L 7.74074,-18.4717 L 7.58801,-18.5479 L 7.05602,-17.4899 L 7.18408,-17.4245 L 7.3089,-17.3563 L 7.43045,-17.2854
 L 7.54874,-17.2117 L 7.66376,-17.1352 L 7.77551,-17.0559 L 7.884,-16.9739 L 7.9888,-16.8891 L 8.08948,-16.8011
 L 8.18604,-16.7099 L 8.27846,-16.6155 L 8.36676,-16.5179 L 8.45094,-16.417 L 8.53101,-16.3129 L 8.60625,-16.2056
 L 8.67656,-16.0947 L 8.74193,-15.9802 L 8.80235,-15.8621 L 8.85785,-15.7403 L 8.9084,-15.6149 L 8.95401,-15.4859
 L 8.9938,-15.353 L 9.02748,-15.2162 L 9.05502,-15.0753 L 9.07646,-14.9304 L 9.09177,-14.7816 L 9.10095,-14.6287
 L 9.104,-14.4719 L 9.09813,-14.2485 L 9.08049,-14.0317 L 9.05112,-13.8214 L 9.00996,-13.6175 L 8.95706,-13.4201
 L 8.89241,-13.2292 L 8.81601,-13.0449 L 8.72868,-12.8677 L 8.63185,-12.6986 L 8.5255,-12.5374 L 8.40964,-12.3843
 L 8.28427,-12.2392 L 8.1494,-12.102 L 8.005,-11.9729 L 7.85175,-11.8522 L 7.69023,-11.7397 L 7.52048,-11.6356
 L 7.34248,-11.5397 L 7.15623,-11.4521 L 6.96175,-11.3729 L 6.759,-11.3019 L 6.54886,-11.2398 L 6.33272,-11.1873
 L 6.11058,-11.1443 L 5.88243,-11.1108 L 5.6483,-11.087 L 5.49318,-11.0777 L 5.48428,-11.1243 L 5.46487,-11.1841
 L 5.43814,-11.2409 L 5.4045,-11.2939 L 5.36447,-11.3423 L 5.31871,-11.3853 L 5.2679,-11.4221 L 5.21288,-11.4524
 L 5.1545,-11.4755 L 5.09369,-11.4911 L 5.03139,-11.499 L 4.96861,-11.499 L 4.90631,-11.4911 L 4.8455,-11.4755
 L 4.78712,-11.4524 L 4.7321,-11.4221 L 4.68129,-11.3853 L 4.63553,-11.3423 L 4.5955,-11.2939 L 4.56186,-11.2409
 L 4.53513,-11.1841 L 4.51572,-11.1243 L 4.51132,-11.1013 L 4.4436,-11.1077 L 4.21703,-11.1387 L 3.9969,-11.1786
 L 3.78323,-11.2273 L 3.576,-11.2849 L 3.37621,-11.3511 L 3.18483,-11.4258 L 3.00185,-11.5089 L 2.82727,-11.6005
 L 2.6611,-11.7005 L 2.50336,-11.8089 L 2.354,-11.9259 L 2.21338,-12.0511 L 2.08234,-12.1847 L 1.96089,-12.3266
 L 1.84903,-12.4767 L 1.74677,-12.6351 L 1.65408,-12.8019 L 1.57101,-12.9769 L 1.49805,-13.1598 L 1.43631,-13.3504
 L 1.3858,-13.5486 L 1.34651,-13.7545 L 1.31845,-13.968 L 1.30162,-14.1891 L 1.29601,-14.4179 L 1.29895,-14.5855
 L 1.30777,-14.7477 L 1.32246,-14.9045 L 1.34303,-15.0559 L 1.36948,-15.202 L 1.40181,-15.3426 L 1.44,-15.4779
 L 1.48282,-15.6083 L 1.52956,-15.7339 L 1.58022,-15.8546 L 1.63478,-15.9704 L 1.69327,-16.0814 L 1.75568,-16.1876
 L 1.82201,-16.2889 L 1.89177,-16.3854 L 1.96446,-16.4771 L 2.04008,-16.5641 L 2.11867,-16.6464 L 2.20016,-16.724
 L 2.28462,-16.7968 L 2.37201,-16.8649 L 2.46123,-16.9289 L 2.55176,-16.9891 L 2.6436,-17.0454 L 2.73674,-17.0978
 L 2.83119,-17.1464 L 2.92694,-17.1911 L 3.024,-17.2319 L 2.62001,-18.4589 L 2.2991,-18.3104 L 2.00156,-18.1397
 L 1.72736,-17.9469 L 1.4765,-17.7318 L 1.24899,-17.4947 L 1.04483,-17.2354 L 0.864014,-16.9539 L 0.70694,-16.651
 L 0.574051,-16.3277 L 0.465317,-15.9839 L 0.380737,-15.6197 L 0.320328,-15.2349 L 0.284088,-14.8296 L 0.272003,-14.4039
 L 0.279022,-14.0911 L 0.300095,-13.7884 L 0.33519,-13.4955 L 0.384338,-13.2127 L 0.447525,-12.9398 L 0.52475,-12.6768
 L 0.616013,-12.4239 L 0.719986,-12.1815 L 0.835922,-11.9502 L 0.963821,-11.7302 L 1.10368,-11.5213 L 1.25549,-11.3237
 L 1.41927,-11.1372 L 1.595,-10.9619 L 1.78192,-10.7982 L 1.97983,-10.6462 L 2.18871,-10.5057 L 2.40855,-10.3769
 L 2.63939,-10.2596 L 2.88121,-10.1539 L 3.134,-10.0599 L 3.39673,-9.97815 L 3.66829,-9.90901 L 3.94872,-9.85243
 L 4.23801,-9.80844 L 4.53615,-9.77701 L 4.84315,-9.75815 L 5.15901,-9.75186 z
M 5.03748,-16.8035 L 5.0618,-16.8098 L 5.08514,-16.819 L 5.10716,-16.8311 L 5.12747,-16.8459 L 5.14578,-16.8631
 L 5.16179,-16.8824 L 5.17525,-16.9037 L 5.18594,-16.9264 L 5.19371,-16.9503 L 5.19841,-16.9749 L 5.2,-17
 L 5.19841,-17.0251 L 5.19371,-17.0497 L 5.18594,-17.0736 L 5.17525,-17.0963 L 5.16179,-17.1176 L 5.14578,-17.1369
 L 5.14525,-17.1374 L 5.13947,-17.1552 L 5.13144,-17.1723 L 5.12134,-17.1882 L 5.10934,-17.2027 L 5.09561,-17.2156
 L 5.08037,-17.2266 L 5.06386,-17.2357 L 5.04634,-17.2426 L 5.02811,-17.2473 L 5.00941,-17.2497 L 4.99059,-17.2497
 L 4.97189,-17.2473 L 4.95366,-17.2426 L 4.93614,-17.2357 L 4.91963,-17.2266 L 4.90439,-17.2156 L 4.89066,-17.2027
 L 4.87866,-17.1882 L 4.86856,-17.1723 L 4.86053,-17.1552 L 4.85475,-17.1374 L 4.85422,-17.1369 L 4.83821,-17.1176
 L 4.82475,-17.0963 L 4.81406,-17.0736 L 4.80629,-17.0497 L 4.80159,-17.0251 L 4.8,-17 L 4.80159,-16.9749
 L 4.80629,-16.9503 L 4.81406,-16.9264 L 4.82475,-16.9037 L 4.83821,-16.8824 L 4.85422,-16.8631 L 4.87253,-16.8459
 L 4.89284,-16.8311 L 4.91486,-16.819 L 4.9382,-16.8098 L 4.96252,-16.8035 L 4.98744,-16.8004 L 5.01256,-16.8004
 z
M 5.01874,-16.4018 L 5.0309,-16.4049 L 5.04257,-16.4095 L 5.05357,-16.4156 L 5.06374,-16.4229 L 5.07289,-16.4315
 L 5.08089,-16.4412 L 5.08762,-16.4518 L 5.09297,-16.4632 L 5.09685,-16.4751 L 5.0992,-16.4875 L 5.09999,-16.5
 L 5.0992,-16.5125 L 5.09685,-16.5249 L 5.09297,-16.5368 L 5.08762,-16.5482 L 5.08089,-16.5588 L 5.07289,-16.5685
 L 5.06374,-16.577 L 5.05357,-16.5844 L 5.04257,-16.5905 L 5.0309,-16.5951 L 5.01874,-16.5982 L 5.00627,-16.5998
 L 4.99373,-16.5998 L 4.98126,-16.5982 L 4.9691,-16.5951 L 4.95743,-16.5905 L 4.94643,-16.5844 L 4.93626,-16.577
 L 4.92711,-16.5685 L 4.91911,-16.5588 L 4.91238,-16.5482 L 4.90703,-16.5368 L 4.90315,-16.5249 L 4.9008,-16.5125
 L 4.90001,-16.5 L 4.9008,-16.4875 L 4.90315,-16.4751 L 4.90703,-16.4632 L 4.91238,-16.4518 L 4.91911,-16.4412
 L 4.92711,-16.4315 L 4.93626,-16.4229 L 4.94643,-16.4156 L 4.95743,-16.4095 L 4.9691,-16.4049 L 4.98126,-16.4018
 L 4.99373,-16.4002 L 5.00627,-16.4002 z
M 5.18738,-14.0177 L 5.30901,-14.049 L 5.42577,-14.0952 L 5.53581,-14.1557 L 5.63742,-14.2295 L 5.72896,-14.3155
 L 5.80901,-14.4122 L 5.8763,-14.5182 L 5.92976,-14.6319 L 5.96858,-14.7513 L 5.99211,-14.8747 L 6,-15
 L 5.99211,-15.1253 L 5.96858,-15.2487 L 5.92976,-15.3681 L 5.8763,-15.4818 L 5.80901,-15.5878 L 5.72896,-15.6845
 L 5.63742,-15.7705 L 5.53581,-15.8443 L 5.42577,-15.9048 L 5.30901,-15.951 L 5.18738,-15.9823 L 5.06279,-15.998
 L 4.93721,-15.998 L 4.81262,-15.9823 L 4.69099,-15.951 L 4.57423,-15.9048 L 4.46419,-15.8443 L 4.36258,-15.7705
 L 4.27104,-15.6845 L 4.19099,-15.5878 L 4.1237,-15.4818 L 4.07024,-15.3681 L 4.03142,-15.2487 L 4.00789,-15.1253
 L 4,-15 L 4.00789,-14.8747 L 4.03142,-14.7513 L 4.07024,-14.6319 L 4.1237,-14.5182 L 4.19099,-14.4122
 L 4.27104,-14.3155 L 4.36258,-14.2295 L 4.46419,-14.1557 L 4.57423,-14.0952 L 4.69099,-14.049 L 4.81262,-14.0177
 L 4.93721,-14.002 L 5.06279,-14.002 z
M 8.0258,-0.723236 L 8.3289,-0.845108 L 8.60931,-0.996628 L 8.86703,-1.17776 L 9.10205,-1.38855 L 9.31438,-1.62895
 L 9.50401,-1.89899 L 9.66956,-2.19989 L 9.80965,-2.53287 L 9.92426,-2.89793 L 10.0134,-3.29507 L 10.0771,-3.7243
 L 10.1153,-4.18561 L 10.128,-4.67899 L 10.1238,-4.96422 L 10.1111,-5.23817 L 10.09,-5.50087 L 10.0604,-5.7523
 L 10.0224,-5.99246 L 9.97592,-6.22136 L 9.92101,-6.439 L 9.85828,-6.64607 L 9.78893,-6.84274 L 9.71297,-7.02901
 L 9.6304,-7.20486 L 9.54121,-7.37032 L 9.44542,-7.52536 L 9.343,-7.67 L 9.23444,-7.80423 L 9.12015,-7.92812
 L 9.00015,-8.04163 L 8.87444,-8.14478 L 8.74301,-8.23755 L 8.60587,-8.31995 L 8.46301,-8.392 L 8.31535,-8.45407
 L 8.16382,-8.50661 L 8.00842,-8.54959 L 7.84914,-8.58301 L 7.68597,-8.60689 L 7.51892,-8.62122 L 7.34801,-8.62599
 L 7.20135,-8.62302 L 7.06026,-8.61407 L 6.9247,-8.59918 L 6.79471,-8.57832 L 6.67026,-8.5515 L 6.55136,-8.51872
 L 6.438,-8.48 L 6.32925,-8.43599 L 6.2247,-8.38742 L 6.12436,-8.33427 L 6.02821,-8.27657 L 5.93628,-8.21428
 L 5.84854,-8.14742 L 5.76501,-8.07599 L 5.6851,-8.00069 L 5.61906,-7.93224 L 5.56213,-7.94685 L 5.18837,-7.99408
 L 4.81163,-7.99408 L 4.43787,-7.94685 L 4.07295,-7.85316 L 3.72267,-7.71448 L 3.39253,-7.53297 L 3.08774,-7.31154
 L 2.8131,-7.05363 L 2.57295,-6.76335 L 2.37109,-6.44525 L 2.21068,-6.10437 L 2.09425,-5.74606 L 2.02367,-5.37599
 L 2,-5 L 2.02367,-4.62401 L 2.09425,-4.25394 L 2.21068,-3.89563 L 2.37109,-3.55475 L 2.57295,-3.23665
 L 2.8131,-2.94637 L 3.08774,-2.68846 L 3.36783,-2.48497 L 3.30089,-2.44867 L 3.20651,-2.40955 L 3.10594,-2.37912
 L 2.99918,-2.35738 L 2.88618,-2.34435 L 2.76701,-2.34 L 2.67537,-2.34241 L 2.58562,-2.34962 L 2.49774,-2.36166
 L 2.41174,-2.37852 L 2.32762,-2.40019 L 2.24538,-2.42668 L 2.16501,-2.45799 L 2.08678,-2.49518 L 2.01154,-2.53873
 L 1.93927,-2.58864 L 1.86998,-2.64493 L 1.80368,-2.70758 L 1.74036,-2.77661 L 1.68001,-2.85199 L 1.62263,-2.93413
 L 1.56882,-3.02342 L 1.51855,-3.11984 L 1.47185,-3.22342 L 1.42868,-3.33414 L 1.38907,-3.452 L 1.35301,-3.577
 L 1.32091,-3.71022 L 1.29375,-3.85217 L 1.27151,-4.00287 L 1.25423,-4.16229 L 1.24188,-4.33046 L 1.23448,-4.50735
 L 1.23201,-4.69299 L 1.23396,-4.85088 L 1.23984,-5.00279 L 1.24963,-5.14874 L 1.26335,-5.28874 L 1.28099,-5.42279
 L 1.30254,-5.55087 L 1.328,-5.67299 L 1.35725,-5.78957 L 1.39014,-5.90099 L 1.42664,-6.00728 L 1.46678,-6.10841
 L 1.51056,-6.20442 L 1.55797,-6.29527 L 1.60901,-6.381 L 1.6637,-6.46211 L 1.72208,-6.53862 L 1.7841,-6.61052
 L 1.84982,-6.67781 L 1.9192,-6.74048 L 1.99228,-6.79854 L 2.069,-6.85199 L 2.14885,-6.90169 L 2.23178,-6.94791
 L 2.31783,-6.99066 L 2.40697,-7.02995 L 2.49921,-7.06577 L 2.59456,-7.09811 L 2.69301,-7.127 L 2.46901,-8.40199
 L 2.31685,-8.35529 L 2.17007,-8.30428 L 2.02869,-8.24899 L 1.89268,-8.18942 L 1.76207,-8.12556 L 1.63684,-8.05742
 L 1.51701,-7.98499 L 1.4023,-7.90689 L 1.29301,-7.82173 L 1.18915,-7.72951 L 1.09073,-7.63022 L 0.997726,-7.52386
 L 0.910156,-7.41046 L 0.828003,-7.28999 L 0.751419,-7.16197 L 0.680496,-7.02591 L 0.61525,-6.88181 L 0.555679,-6.72966
 L 0.501785,-6.56949 L 0.453552,-6.40126 L 0.411011,-6.22499 L 0.37413,-6.03946 L 0.342926,-5.84344 L 0.317398,-5.63693
 L 0.297531,-5.41994 L 0.283356,-5.19244 L 0.274841,-4.95447 L 0.272003,-4.70599 L 0.274933,-4.48734 L 0.283676,-4.2731
 L 0.298279,-4.06326 L 0.318695,-3.85783 L 0.344971,-3.65681 L 0.377075,-3.46019 L 0.415009,-3.26799 L 0.459076,-3.08185
 L 0.510117,-2.90285 L 0.56813,-2.73099 L 0.633133,-2.56628 L 0.705109,-2.40871 L 0.784073,-2.25829 L 0.87001,-2.11499
 L 0.962967,-1.9799 L 1.06299,-1.85352 L 1.17007,-1.73582 L 1.28421,-1.62683 L 1.40541,-1.52652 L 1.53368,-1.43491
 L 1.66901,-1.35199 L 1.81183,-1.2793 L 1.96255,-1.21779 L 2.12122,-1.16747 L 2.28778,-1.12833 L 2.46228,-1.10036
 L 2.64468,-1.08359 L 2.83501,-1.07799 L 2.96846,-1.08075 L 3.09738,-1.08902 L 3.22176,-1.10278 L 3.34161,-1.12207
 L 3.45694,-1.14687 L 3.56775,-1.17717 L 3.67401,-1.213 L 3.77618,-1.25391 L 3.87474,-1.29895 L 3.96967,-1.34811
 L 4.06094,-1.4014 L 4.14861,-1.4588 L 4.23262,-1.52034 L 4.313,-1.586 L 4.39001,-1.65576 L 4.46387,-1.7291
 L 4.53458,-1.80597 L 4.60216,-1.8864 L 4.66658,-1.97038 L 4.70123,-2.01987 L 4.81163,-2.00592 L 5.18837,-2.00592
 L 5.56213,-2.05315 L 5.92705,-2.14684 L 6.27733,-2.28552 L 6.60747,-2.46703 L 6.91226,-2.68846 L 7.1869,-2.94637
 L 7.42705,-3.23665 L 7.62891,-3.55475 L 7.78932,-3.89563 L 7.90575,-4.25394 L 7.97633,-4.62401 L 8,-5
 L 7.97633,-5.37599 L 7.90575,-5.74606 L 7.78932,-6.10437 L 7.62891,-6.44525 L 7.42705,-6.76335 L 7.1869,-7.05363
 L 6.94882,-7.27721 L 7.04652,-7.30469 L 7.16246,-7.32652 L 7.28561,-7.33963 L 7.416,-7.34399 L 7.54088,-7.34003
 L 7.66066,-7.32816 L 7.77533,-7.30836 L 7.8849,-7.28064 L 7.98938,-7.24501 L 8.08875,-7.20146 L 8.18301,-7.14999
 L 8.27205,-7.09172 L 8.35631,-7.02722 L 8.43581,-6.95647 L 8.51051,-6.87946 L 8.58046,-6.79622 L 8.64561,-6.70673
 L 8.70601,-6.61099 L 8.7616,-6.50963 L 8.81294,-6.40266 L 8.86005,-6.29012 L 8.90291,-6.17197 L 8.94151,-6.04823
 L 8.97589,-5.91891 L 9.00601,-5.784 L 9.03201,-5.64461 L 9.054,-5.5013 L 9.07201,-5.35408 L 9.08601,-5.20293
 L 9.09601,-5.04787 L 9.10201,-4.88889 L 9.104,-4.726 L 9.10153,-4.53256 L 9.09413,-4.34714 L 9.08179,-4.16971
 L 9.0645,-4.00027 L 9.04227,-3.83885 L 9.01511,-3.68542 L 8.983,-3.53999 L 8.94646,-3.40181 L 8.90594,-3.27011
 L 8.86148,-3.14491 L 8.81305,-3.0262 L 8.76067,-2.91397 L 8.70432,-2.80824 L 8.64401,-2.709 L 8.57973,-2.61583
 L 8.51201,-2.52834 L 8.44087,-2.44652 L 8.36629,-2.37038 L 8.2883,-2.29991 L 8.20686,-2.23511 L 8.12201,-2.17599
 L 8.03407,-2.12206 L 7.94339,-2.07224 L 7.84999,-2.02655 L 7.75385,-1.98497 L 7.65497,-1.94753 L 7.55336,-1.9142
 L 7.44901,-1.88499 L 7.70001,-0.630997 z
" stroke="black" fill="lightgray" stroke-width="0.5"/>
</svg>
